<svg width="525" height="425" viewBox="0 0 525 425" fill="none" xmlns="http://www.w3.org/2000/svg">
<path fill-rule="evenodd" clip-rule="evenodd" d="M241.8 0.634783C232.936 1.71078 232.166 2.01178 232.488 4.27778C232.66 5.48378 233.457 6.47078 234.259 6.47078C236.15 6.47078 237.629 13.1408 235.973 14.1948C235.328 14.6048 233.148 14.9468 231.129 14.9558C227.814 14.9698 227.391 14.6638 226.761 11.7938C226.242 9.43278 226.479 8.31278 227.682 7.43378C228.572 6.78278 229.3 5.25978 229.3 4.04878C229.3 2.00278 228.967 1.89178 224.55 2.47378C214.903 3.74478 214.3 3.97978 214.3 6.48078C214.3 8.15778 214.945 8.92378 216.55 9.15078C218.515 9.42978 218.878 10.2318 219.413 15.4708C219.75 18.7708 220.354 23.5448 220.755 26.0798C221.412 30.2308 221.277 30.7438 219.392 31.2368C218.11 31.5718 217.3 32.5938 217.3 33.8768C217.3 36.2028 219.898 36.5358 228.66 35.3348C232.383 34.8248 233.3 34.3118 233.3 32.7408C233.3 31.6558 232.45 30.5608 231.392 30.2848C229.359 29.7528 228.336 27.2208 228.314 22.6658C228.3 19.9418 228.437 19.8698 233.05 20.1658C237.776 20.4688 237.802 20.4898 238.116 24.3128C238.335 26.9778 237.935 28.5168 236.811 29.3388C234.658 30.9138 235.879 33.9738 238.657 33.9618C239.836 33.9578 243.163 33.6698 246.05 33.3228C250.723 32.7618 251.3 32.4328 251.3 30.3318C251.3 28.5138 250.754 27.9708 248.929 27.9708C246.357 27.9708 246.245 27.5448 244.688 11.7208C244.046 5.19478 244.098 4.97078 246.269 4.97078C247.905 4.97078 248.349 4.54178 247.907 3.38878C247.573 2.51878 247.3 1.39378 247.3 0.888781C247.3 0.383781 246.738 0.037783 246.05 0.120783C245.363 0.202783 243.45 0.434783 241.8 0.634783ZM255.967 0.637781C255.6 1.00378 255.3 3.92878 255.3 7.13778C255.3 12.6548 255.432 12.9708 257.74 12.9708C259.837 12.9708 260.223 12.4448 260.49 9.22078C260.759 5.96978 261.133 5.47078 263.3 5.47078C265.494 5.47078 265.841 5.95978 266.135 9.47078C266.319 11.6708 266.168 16.7338 265.799 20.7208C265.164 27.5958 265.001 27.9708 262.645 27.9708C260.641 27.9708 260.223 28.4058 260.48 30.2208C260.779 32.3228 261.353 32.4898 269.214 32.7638C274.97 32.9648 277.864 32.6768 278.372 31.8548C279.491 30.0428 278.329 27.9708 276.193 27.9708C274.451 27.9708 274.3 27.0978 274.3 17.0298C274.3 10.7498 274.73 5.82278 275.309 5.46478C275.864 5.12278 277.214 5.12578 278.309 5.47378C279.788 5.94278 280.3 6.98878 280.3 9.53778C280.3 12.5328 280.619 12.9708 282.8 12.9708C285.182 12.9708 285.3 12.6938 285.3 7.12078V1.26979L276.146 0.620783C264.406 -0.213217 256.811 -0.206219 255.967 0.637781ZM308.847 5.75678C307.535 7.06978 308.458 10.1998 310.3 10.6808C312.741 11.3188 312.811 10.4078 309.385 22.4708C306.866 31.3408 306.289 32.4738 304.279 32.4938C302.87 32.5078 301.704 33.3488 301.198 34.7168C300.32 37.0908 299.989 36.9368 312.652 40.0618C316.668 41.0528 317.656 41.0198 318.386 39.8648C319.818 37.6048 319.432 35.9708 317.467 35.9708C314.709 35.9708 314.442 35.2488 315.567 30.8188C316.588 26.7948 316.627 26.7678 320.448 27.3788C324.024 27.9498 324.3 27.8208 324.3 25.5808C324.3 23.7778 323.512 22.8918 321.188 22.0818C318.949 21.3008 318.248 20.5498 318.688 19.4018C319.025 18.5248 319.3 17.1548 319.3 16.3578C319.3 14.1728 321.622 13.7108 326.288 14.9678C330.051 15.9808 330.422 16.3498 329.873 18.5338C329.438 20.2698 329.675 20.9708 330.699 20.9708C331.49 20.9708 332.788 21.2208 333.585 21.5268C334.64 21.9318 335.355 20.8108 336.212 17.4048C336.86 14.8328 337.257 12.6378 337.095 12.5278C335.878 11.7048 309.276 5.32778 308.847 5.75678ZM195.55 9.63278C194.863 9.91078 194.297 10.6628 194.294 11.3038C194.29 11.9928 192.534 12.5168 190.01 12.5838C185.019 12.7148 180.213 14.9678 176.229 19.0428C166.309 29.1918 177.099 49.0838 191.115 46.4858C196.797 45.4328 204.122 40.9958 206.482 37.1768C208.536 33.8528 209.32 26.4308 207.866 24.0768C207.363 23.2638 194.869 27.0758 193.469 28.4698C193.287 28.6508 193.633 29.7238 194.237 30.8538C195.142 32.5448 195.774 32.7408 197.818 31.9638C200.015 31.1288 200.3 31.2848 200.3 33.3208C200.3 39.0868 190.306 42.3118 185.46 38.1098C182.286 35.3568 180.028 29.2338 180.756 25.3528C181.937 19.0608 190.003 15.9378 196.202 19.3728C198.48 20.6348 202.294 20.4668 202.305 19.1038C202.308 18.7558 201.544 16.3328 200.607 13.7208C198.965 9.13678 198.237 8.54878 195.55 9.63278ZM346.159 25.1288C336.918 30.4868 335.5 44.3678 343.455 51.6038C349.839 57.4108 357.126 58.9618 364.045 55.9848C368.09 54.2448 369.567 52.8968 371.68 49.0138C375.144 42.6498 375.107 37.6148 371.556 32.1388C366.221 23.9118 354.05 20.5528 346.159 25.1288ZM151.05 30.0588C147.338 32.2638 144.307 34.3828 144.315 34.7688C144.361 36.8478 146.197 38.0348 148.482 37.4618C150.764 36.8888 151.407 37.5868 156.137 45.7818C158.977 50.7028 161.3 55.2028 161.3 55.7818C161.3 56.3618 160.4 57.1218 159.3 57.4708C156.887 58.2368 156.766 59.2828 158.887 61.0428C160.236 62.1628 161.588 61.7678 167.879 58.4158C171.951 56.2458 175.28 54.0208 175.276 53.4708C175.261 51.2828 173.585 50.0468 170.911 50.2538C168.35 50.4518 167.651 49.6788 163.043 41.5568C158.02 32.7028 158 32.6318 160.033 30.9858C161.548 29.7598 161.836 28.8918 161.14 27.6498C159.808 25.2688 158.652 25.5448 151.05 30.0588ZM351.915 31.0588C343.037 38.0428 345.084 50.9708 355.067 50.9708C357.974 50.9708 359.573 50.2928 361.549 48.2208C367 42.5068 367.704 36.2208 363.377 31.8938C359.855 28.3728 355.714 28.0708 351.915 31.0588ZM125.44 47.6288C119.313 52.3478 114.3 56.5508 114.3 56.9678C114.3 57.3848 114.975 58.2858 115.8 58.9708C116.915 59.8958 117.646 59.9278 118.65 59.0948C119.719 58.2078 121.414 59.7788 126.787 66.6378C132.775 74.2818 133.43 75.5328 132.35 77.2628C131.352 78.8598 131.409 79.5088 132.657 80.7558C134.446 82.5458 133.686 82.9788 147.19 72.4708C152.138 68.6208 156.198 65.0208 156.214 64.4708C156.229 63.9208 154.874 61.9668 153.202 60.1278C150.298 56.9348 150.077 56.8618 148.263 58.5038C146.839 59.7938 146.606 60.6738 147.332 62.0308C148.685 64.5578 148.735 64.4578 144.372 67.9138L140.443 71.0258L134.873 63.7228L137.587 61.5588C140.554 59.1928 140.908 57.9788 139.143 56.2138C138.268 55.3388 137.287 55.5558 135.108 57.1078C131.717 59.5218 130.287 59.1828 128.313 55.4958C126.917 52.8858 126.996 52.6658 130.33 49.9018C134.364 46.5568 135.158 46.3948 136.763 48.5898C137.785 49.9868 138.245 50.0218 140.123 48.8488C142.889 47.1218 142.871 46.9648 139.44 42.6468L136.58 39.0478L125.44 47.6288ZM387.618 42.8338C386.693 44.3138 386.777 45.0188 388.022 46.2638C389.445 47.6868 388.966 48.5788 382.816 55.9518C376.732 63.2458 375.766 64.0128 373.33 63.4778C371.592 63.0958 370.198 63.3888 369.447 64.2938C368.498 65.4368 369.488 66.7698 374.659 71.3088C380.826 76.7238 381.099 76.8498 382.736 75.0418C383.847 73.8138 384.064 72.9428 383.365 72.5108C381.473 71.3418 382.229 68.4128 385.145 65.6188C387.684 63.1868 388.131 63.0628 389.293 64.4618C390.368 65.7578 390.299 67.3768 388.895 73.7508L387.194 81.4708L390.263 84.2208C391.951 85.7328 393.951 86.9708 394.709 86.9708C396.559 86.9708 397.677 83.8218 396.159 82.8838C395.263 82.3298 395.19 80.6328 395.876 76.3038C396.793 70.5178 396.829 70.4688 400.425 70.1678C404.681 69.8118 407.998 66.7328 408.881 62.3168C409.378 59.8288 408.913 58.5998 406.382 55.7168C403.538 52.4778 390.114 40.9708 389.179 40.9708C388.96 40.9708 388.258 41.8088 387.618 42.8338ZM393.297 55.9758C391.161 58.9748 391.147 59.1448 392.891 61.0718C395.022 63.4258 399.104 63.2608 400.671 60.7568C401.499 59.4338 401.28 58.4208 399.711 56.3198C396.854 52.4928 395.816 52.4368 393.297 55.9758ZM417.029 68.7178C415.94 69.9208 415.673 70.9438 416.289 71.5598C416.904 72.1748 416.089 74.3878 414.025 77.7058C401.251 98.2438 401.917 96.8858 403.325 99.5188C404.937 102.53 405.334 102.527 412.8 99.4518C416.1 98.0918 418.912 96.9778 419.05 96.9758C419.959 96.9588 418.814 99.6428 415.644 104.965C411.988 111.102 411.988 111.104 413.986 113.102C415.984 115.1 415.988 115.099 429.392 109.963C439.034 106.269 443.235 105.095 444.349 105.782C445.396 106.428 446.484 106.31 447.703 105.418C449.392 104.183 449.265 103.81 445.692 99.5348C443.593 97.0248 441.577 94.9708 441.211 94.9708C440.053 94.9708 438.218 97.7088 438.515 98.9928C438.731 99.9268 426.72 105.971 424.648 105.971C423.492 105.971 424.778 102.89 428.05 97.8188C430.902 93.3988 432.231 92.1428 433.598 92.5718C434.587 92.8818 436.044 92.5978 436.836 91.9408C438.075 90.9128 438.001 90.3778 436.304 88.1088C431.475 81.6518 431.616 81.7568 429.526 83.0618C428.438 83.7408 427.762 85.0208 428.003 85.9428C428.334 87.2088 426.749 88.2638 421.312 90.3968C417.394 91.9338 414.006 93.0098 413.784 92.7888C413.563 92.5668 415.223 89.3618 417.474 85.6658C420.751 80.2848 421.838 79.1728 422.933 80.0808C423.958 80.9318 424.675 80.9048 425.8 79.9708C428.036 78.1148 427.638 76.9418 422.977 71.6538C418.87 66.9948 418.675 66.8988 417.029 68.7178ZM102.068 70.0408C99.5644 71.4998 86.3004 87.0378 86.3004 88.5118C86.3004 90.3818 89.1284 91.0948 91.2624 89.7628C92.8994 88.7398 94.1654 89.4848 100.972 95.4828C105.278 99.2768 108.977 102.502 109.193 102.651C109.408 102.801 109.021 103.603 108.331 104.434C106.88 106.182 107.627 108.971 109.546 108.971C110.266 108.971 113.174 106.336 116.009 103.116C120.689 97.7988 121.018 97.1178 119.594 95.6928C118.41 94.5098 117.607 94.3868 116.317 95.1918C114.989 96.0218 113.907 95.7398 111.454 93.9268C108.015 91.3838 107.413 89.2488 109.868 88.3058C110.731 87.9748 114.787 88.4928 118.882 89.4578L126.327 91.2108L129.298 87.8408C132.713 83.9658 132.803 83.6338 130.878 82.0358C129.784 81.1278 129.007 81.1368 127.505 82.0748C126.097 82.9548 124.089 83.0398 120.302 82.3828C115.071 81.4738 115.05 81.4558 114.819 77.5428C114.431 70.9938 107.466 66.8958 102.068 70.0408ZM328.3 70.8258C328.3 71.4298 329.829 76.0968 331.698 81.1978C336.003 92.9458 336.954 99.5508 334.528 100.847C333.577 101.355 328.097 101.928 322.348 102.12C312.047 102.466 311.878 102.435 310.637 99.9708C309.117 96.9538 305.414 93.7818 304.251 94.5008C303.789 94.7868 304.032 97.0838 304.791 99.6058C306.088 103.917 306.055 104.222 304.235 104.698C301.643 105.376 301.765 106.971 304.408 106.971C306.153 106.971 306.412 107.402 305.908 109.471C305.574 110.846 305.026 113.096 304.692 114.471C303.355 119.964 309.438 115.716 311.648 109.612C312.271 107.891 313.148 107.807 323.56 108.475C329.742 108.872 335.137 109.398 335.55 109.643C337.287 110.676 336.066 119.273 332.808 128.949C330.887 134.653 329.558 139.563 329.855 139.86C331.195 141.199 334.048 137.613 338.734 128.701C343.549 119.542 343.973 119.051 347.3 118.768C350.034 118.536 350.8 118.033 350.8 116.471C350.8 115.121 350.231 114.566 349.05 114.765C346.691 115.161 346.742 111.786 349.129 109.626C350.465 108.417 352.849 107.971 357.98 107.971C361.842 107.971 366.419 107.477 368.151 106.873C375.898 104.172 368.256 100.323 357.291 101.403C350.788 102.044 350.441 101.966 348.425 99.4028C346.238 96.6228 346.4 94.9708 348.859 94.9708C349.652 94.9708 350.3 94.0708 350.3 92.9708C350.3 91.3298 349.628 90.9678 346.55 90.9538C342.863 90.9378 342.716 90.7848 337.753 81.7948C333.21 73.5648 328.3 67.8678 328.3 70.8258ZM99.9554 78.7998C97.7554 81.2298 97.8634 82.2118 100.614 84.7968C103.664 87.6618 104.529 87.5458 106.63 83.9898C107.994 81.6808 108.147 80.5538 107.31 78.9898C105.96 76.4678 102.154 76.3688 99.9554 78.7998ZM73.2724 108.589C67.6104 118.499 66.3574 121.393 67.4324 122.074C69.4374 123.344 70.4344 123.17 71.7924 121.313C72.8944 119.805 73.5384 119.957 78.9024 122.995C91.4204 130.083 92.4224 130.875 91.3684 132.844C90.3464 134.754 91.6534 136.971 93.8014 136.971C94.7314 136.971 103.3 123.202 103.3 121.708C103.3 121.431 102.316 120.947 101.113 120.632C99.6324 120.245 98.4944 120.676 97.5894 121.968C96.2804 123.838 96.1824 123.834 92.6984 121.778C90.0614 120.222 89.2924 119.202 89.7214 117.826C90.0404 116.806 90.5614 115.133 90.8814 114.109C91.6894 111.515 88.2814 110.276 86.6124 112.558C85.9304 113.491 85.2144 114.73 85.0204 115.31C84.6454 116.437 78.7124 114.446 77.7354 112.865C77.4474 112.4 78.2444 110.196 79.5064 107.967C81.4394 104.553 82.1794 104.007 84.2054 104.501C86.5804 105.08 88.2524 103.768 88.2854 101.303C88.2984 100.272 82.4394 95.9708 81.0224 95.9708C80.7244 95.9708 77.2374 101.649 73.2724 108.589ZM276.3 106.578C276.3 107.633 276.844 107.976 277.882 107.578C278.752 107.244 279.877 106.971 280.382 106.971C280.887 106.971 281.3 106.521 281.3 105.971C281.3 105.421 280.175 104.971 278.8 104.971C277.17 104.971 276.3 105.531 276.3 106.578ZM285.519 106.129C286.121 107.935 290.3 108.228 290.3 106.465C290.3 105.525 289.341 104.971 287.717 104.971C286.203 104.971 285.293 105.451 285.519 106.129ZM266.3 106.971C266.3 107.521 267.425 107.971 268.8 107.971C270.175 107.971 271.3 107.521 271.3 106.971C271.3 106.421 270.175 105.971 268.8 105.971C267.425 105.971 266.3 106.421 266.3 106.971ZM294.3 106.971C294.3 107.521 294.975 107.971 295.8 107.971C296.625 107.971 297.3 107.521 297.3 106.971C297.3 106.421 296.625 105.971 295.8 105.971C294.975 105.971 294.3 106.421 294.3 106.971ZM257.3 107.971C257.3 108.521 258.425 108.971 259.8 108.971C261.175 108.971 262.3 108.521 262.3 107.971C262.3 107.421 261.175 106.971 259.8 106.971C258.425 106.971 257.3 107.421 257.3 107.971ZM222.329 116.932C221.52 117.444 221.09 118.094 221.373 118.377C222.147 119.152 226.3 117.869 226.3 116.854C226.3 115.707 224.2 115.748 222.329 116.932ZM450.719 119.322C450.434 120.065 450.335 121.287 450.5 122.038C450.723 123.052 447.974 123.833 439.8 125.077C429.977 126.572 428.617 126.59 427.087 125.24C425.377 123.73 422.3 124.1 422.3 125.815C422.3 127.232 427.206 137.971 427.853 137.971C428.171 137.971 429.308 137.502 430.378 136.929C431.895 136.117 432.107 135.479 431.336 134.039C430.489 132.456 430.79 132.126 433.434 131.738C436.043 131.355 436.812 131.763 438.406 134.378C440.802 138.307 440.777 139.229 438.21 141.553C436.195 143.376 436.072 143.379 434.792 141.629C433.712 140.152 433.074 140.021 431.376 140.93C429.472 141.949 429.409 142.286 430.659 144.759C431.413 146.251 432.845 149.271 433.841 151.471C434.837 153.671 435.759 155.62 435.89 155.802C436.021 155.984 437.027 155.652 438.124 155.065C439.385 154.39 439.941 153.316 439.635 152.146C439.281 150.79 441.458 148.2 447.756 142.482C455.477 135.472 456.488 134.846 457.606 136.375C458.844 138.068 462.3 137.705 462.3 135.882C462.3 135.401 460.529 131.174 458.365 126.489C454.577 118.292 452.03 115.904 450.719 119.322ZM213.55 120.633C212.167 121.191 211.831 122.971 213.109 122.971C213.554 122.971 214.791 122.31 215.859 121.503C217.305 120.409 217.418 120.047 216.3 120.082C215.475 120.108 214.238 120.356 213.55 120.633ZM205.55 124.633C204.167 125.191 203.831 126.971 205.109 126.971C205.554 126.971 206.791 126.31 207.859 125.503C209.305 124.409 209.418 124.047 208.3 124.082C207.475 124.108 206.238 124.356 205.55 124.633ZM197.192 129.913C195.342 131.453 195.169 131.912 196.428 131.938C198.141 131.973 200.942 129.279 200.084 128.422C199.809 128.146 198.507 128.817 197.192 129.913ZM445.8 129.698C441.619 130.293 440.933 131.304 443.01 133.813L444.8 135.975L448.05 133.4C449.838 131.985 451.3 130.409 451.3 129.899C451.3 128.955 451.075 128.947 445.8 129.698ZM189.55 134.633C188.167 135.191 187.831 136.971 189.109 136.971C189.554 136.971 190.791 136.31 191.859 135.503C193.305 134.409 193.418 134.047 192.3 134.082C191.475 134.108 190.238 134.356 189.55 134.633ZM181.873 140.492C180.813 141.294 180.212 142.216 180.537 142.542C181.328 143.332 185.3 141.159 185.3 139.936C185.3 138.592 184.135 138.781 181.873 140.492ZM174.779 146.995C173.273 148.659 173.232 148.971 174.523 148.971C176.443 148.971 178.729 146.354 177.482 145.584C176.979 145.273 175.762 145.908 174.779 146.995ZM56.5554 149.221C54.5684 151.731 53.1914 155.125 50.7714 163.475C47.7664 173.846 47.7434 174.592 50.4114 175.29C51.9354 175.688 52.6624 175.304 53.0274 173.906C53.6744 171.435 54.8794 171.523 65.8004 174.838C74.0244 177.335 74.8274 177.803 75.1164 180.271C75.3364 182.142 76.0144 182.971 77.3264 182.971C78.7874 182.971 79.6864 181.462 81.2604 176.366C82.3824 172.733 83.3004 169.185 83.3004 168.482C83.3004 166.361 79.3934 165.929 78.3214 167.931C77.4894 169.486 76.8524 169.574 73.2934 168.624C70.0994 167.771 69.2814 167.113 69.5094 165.582C69.8214 163.485 71.6344 162.721 80.4044 160.994C85.7134 159.948 86.0684 159.688 87.1544 156.064C88.7684 150.678 88.6194 149.971 85.8734 149.971C84.3794 149.971 83.3204 150.628 83.1174 151.681C82.8854 152.886 81.0684 153.736 76.9654 154.558C71.8264 155.587 71.0764 155.533 70.5724 154.098C69.2054 150.199 65.9964 147.971 61.7484 147.971C59.4364 147.971 57.0994 148.534 56.5554 149.221ZM465.001 150.603C464.616 150.989 464.3 152.268 464.3 153.445C464.3 155.323 463.023 155.917 453.912 158.279C448.198 159.76 443.301 160.971 443.028 160.971C442.756 160.971 442.298 160.071 442.01 158.971C441.397 156.627 438.495 156.298 437.659 158.477C437.197 159.683 439.895 172.474 440.894 173.812C441.715 174.912 445.3 172.525 445.3 170.879C445.3 169.698 446.317 168.535 447.865 167.946C456.182 164.784 456.631 169.404 448.684 176.375C443.255 181.137 443.112 181.393 443.733 185.279C444.556 190.424 444.89 190.891 447.301 190.26C448.558 189.932 449.3 188.896 449.3 187.471C449.3 186.097 450.868 183.787 453.279 181.609L457.258 178.014L460.756 180.078C465.455 182.85 470.393 181.402 472.681 176.58C474.151 173.483 474.079 172.597 471.493 161.886C469.597 154.032 468.269 150.396 467.222 150.195C466.386 150.034 465.387 150.217 465.001 150.603ZM167.8 153.971C166.363 155.559 166.29 155.971 167.445 155.971C169.014 155.971 171.3 154.073 171.3 152.771C171.3 151.354 169.659 151.917 167.8 153.971ZM58.5034 157.227C57.9304 157.917 57.1724 159.633 56.8194 161.04C56.2454 163.327 56.5764 163.72 59.9484 164.755C64.2014 166.06 65.2584 165.301 65.2854 160.921C65.3114 156.609 60.9754 154.248 58.5034 157.227ZM161.883 160.614C160.939 163.077 161.754 163.232 163.794 160.977C165.329 159.281 165.37 158.971 164.062 158.971C163.211 158.971 162.23 159.71 161.883 160.614ZM461.05 164.66C457.363 165.624 459.795 172.971 463.8 172.971C466.746 172.971 468.298 170.409 467.591 166.71C467.064 163.957 465.554 163.483 461.05 164.66ZM156.5 167.171C155.84 167.831 155.3 169.026 155.3 169.826C155.3 170.981 155.712 170.908 157.3 169.471C159.354 167.612 159.917 165.971 158.5 165.971C158.06 165.971 157.16 166.511 156.5 167.171ZM150.883 175.614C150.046 177.796 151.158 178.81 152.339 176.942C153.522 175.072 153.547 173.971 152.407 173.971C151.916 173.971 151.23 174.71 150.883 175.614ZM113.357 182.675C113.388 183.113 117.478 186.396 122.445 189.971C135.069 199.056 137.3 200.947 137.3 202.56C137.3 203.355 138.282 203.973 139.55 203.975C140.788 203.978 144.108 205.73 146.93 207.869L152.059 211.758L203.43 212.153C241.827 212.449 255.366 212.862 257.04 213.789C261.913 216.49 264.076 226.991 260.739 231.754C257.219 236.78 255.759 236.971 220.85 236.971C202.947 236.971 188.326 237.308 188.357 237.721C188.424 238.598 194.591 243.366 206.954 252.099C211.819 255.536 216.025 258.615 216.3 258.943C216.575 259.271 226.25 266.459 237.8 274.918C249.35 283.376 259.687 291.124 260.772 292.134C262.715 293.943 262.692 293.973 259.272 294.09C256.408 294.188 256.761 294.383 261.292 295.205C266.956 296.232 266.841 296.154 306.714 326.038C316.77 333.575 323.461 338.144 323.859 337.746C324.068 337.536 322.645 333.114 320.695 327.918C315.832 314.958 309.319 296.607 309.309 295.836C309.304 295.487 311.847 294.883 314.961 294.494C318.185 294.091 323.195 292.438 326.599 290.654C335.226 286.132 342.952 285.849 354.827 289.621C362.856 292.171 365.221 292.471 377.3 292.469C388.871 292.468 391.774 292.132 397.614 290.117C401.362 288.823 404.217 287.554 403.959 287.296C403.701 287.038 401.309 287.609 398.645 288.565C395.08 289.844 390.498 290.322 381.3 290.375C370.245 290.438 367.789 290.123 360.05 287.648C355.238 286.11 351.3 284.419 351.3 283.891C351.3 283.364 352.388 283.129 353.718 283.37C356.622 283.897 357.871 282.548 361.958 274.471C367.44 263.637 367.849 262.1 365.688 260.464C363.862 259.082 363.871 259.034 365.943 259.003C367.683 258.977 369.3 257.277 369.3 255.472C369.3 255.287 367.272 254.362 364.793 253.415C357.823 250.753 354.2 251.437 331.8 259.64C329.05 260.647 325.45 262.432 323.8 263.607C322.15 264.781 319.225 266.406 317.3 267.217C308.582 270.891 304.3 273.292 304.3 274.506C304.3 275.402 307.147 274.586 313.231 271.948C318.143 269.818 322.98 267.622 323.981 267.068C330.668 263.37 343.45 258.968 347.3 259.038C348.854 259.066 346.962 260.145 342.3 261.889C338.175 263.433 328.146 267.541 320.012 271.018L305.225 277.339L300.512 275.65C297.921 274.721 294.888 273.963 293.774 273.966C291.78 273.971 278.145 264.966 271.3 259.124C268.073 256.37 267.956 256.083 269.8 255.446C281.328 251.466 289.814 244.39 294.119 235.167C296.26 230.58 296.848 227.65 297.139 220.116C297.488 211.078 297.38 210.517 293.948 203.574C289.594 194.764 277.8 183.471 276.8 182.971L276.3 182.825L191.05 182.175C148.288 182.013 113.326 182.238 113.357 182.675ZM291.147 188.148C297.18 194.154 301.513 201.942 303.175 209.77C304.534 216.171 304.628 224.342 303.391 228.652C302.892 230.395 302.702 232.039 302.97 232.307C303.237 232.575 308.484 229.207 314.628 224.822C320.773 220.438 335.855 209.79 348.145 201.161L370.491 185.471L359.645 184.852C353.68 184.511 334.625 183.916 317.3 183.529L285.8 182.825L291.147 188.148ZM73.5984 186.938C73.3164 188.02 72.3454 189.127 71.4424 189.4C69.8494 189.88 51.1934 193.971 50.5974 193.971C50.4344 193.971 50.3004 193.057 50.3004 191.94C50.3004 189.704 47.6854 188.186 46.2704 189.601C45.7774 190.094 45.0714 194.807 44.7004 200.075C44.1014 208.599 44.2174 209.725 45.7544 210.315C47.8574 211.122 49.3004 210.347 49.3004 208.412C49.3004 206.364 50.6224 206.632 61.3004 210.843C68.8804 213.832 70.8654 215.032 71.1204 216.78C71.3484 218.346 72.1324 218.971 73.8704 218.971C76.0254 218.971 76.3004 218.533 76.3004 215.096C76.3004 212.965 76.5814 209.815 76.9254 208.096C77.4924 205.26 77.3184 204.971 75.0424 204.971C73.3744 204.971 72.3584 205.642 72.0104 206.971C71.3674 209.432 70.1384 209.5 67.4794 207.221C65.7864 205.77 65.5564 204.787 66.1304 201.471C66.7114 198.122 67.2484 197.422 69.4314 197.167C71.3934 196.939 72.1774 197.392 72.5964 198.996C73.0014 200.544 73.7924 201.039 75.4774 200.8C77.6494 200.492 77.8194 199.969 78.0924 192.721C78.3694 185.382 78.2714 184.971 76.2484 184.971C74.9664 184.971 73.9074 185.757 73.5984 186.938ZM472.3 194.471C472.3 196.913 472.115 196.976 464.3 197.165C448.795 197.542 449.83 197.682 449.473 195.162C449.233 193.471 448.592 192.935 447.08 193.162C445.135 193.453 445.025 194.056 445.211 203.471C445.319 208.971 445.674 214.596 446 215.971C449.266 229.769 470.486 231.58 476.396 218.566C478.342 214.281 478.859 205.33 477.664 196.611C477.111 192.579 476.718 191.971 474.664 191.971C472.809 191.971 472.3 192.509 472.3 194.471ZM55.0504 199.687C51.1514 200.278 51.6314 201.291 56.7004 203.17L61.0994 204.801L61.5574 202.409C62.2414 198.831 61.8314 198.66 55.0504 199.687ZM453.927 205.707L450.055 206.106L450.616 210.287C451.381 215.993 454.909 218.971 460.905 218.971C469.043 218.971 473.3 215.17 473.3 207.906V204.971L465.55 205.139C461.287 205.232 456.057 205.487 453.927 205.707ZM134.776 210.046C134.414 211.188 134.408 212.412 134.763 212.767C135.513 213.517 137.262 211.056 137.285 209.221C137.31 207.194 135.491 207.792 134.776 210.046ZM132.967 217.638C131.929 218.675 132.183 221.971 133.3 221.971C133.85 221.971 134.3 221.558 134.3 221.053C134.3 220.548 134.573 219.423 134.907 218.553C135.512 216.976 134.232 216.372 132.967 217.638ZM47.8004 223.863C45.6004 224.197 43.8084 224.921 43.8184 225.471C43.8544 227.381 46.4244 249.483 46.8644 251.658C47.2484 253.555 47.8014 253.778 51.0534 253.343C58.8254 252.303 59.4474 252.021 59.1154 249.686C58.8444 247.779 58.2804 247.517 55.0504 247.798C51.4934 248.107 51.3004 247.973 51.3004 245.186C51.3004 242.293 51.4054 242.236 58.0504 241.556C61.7624 241.175 66.6504 240.611 68.9124 240.301C72.7444 239.775 73.0714 239.921 73.7044 242.445C74.1804 244.343 74.8444 244.976 75.9244 244.562C76.7714 244.237 77.9134 243.971 78.4614 243.971C79.0114 243.971 79.2224 242.735 78.9324 241.221C78.6424 239.709 78.1094 235.633 77.7484 232.165C77.1534 226.453 76.8894 225.888 74.9454 226.165C73.4734 226.375 72.7044 227.296 72.4954 229.099C72.1644 231.957 71.9334 232.02 56.0504 233.583C49.3204 234.245 49.3004 234.24 49.3004 231.716C49.3004 229.151 50.9014 227.971 54.3824 227.971C55.7614 227.971 56.3004 227.269 56.3004 225.471C56.3004 222.768 55.7234 222.658 47.8004 223.863ZM130.776 228.046C130.414 229.188 130.408 230.412 130.763 230.767C131.513 231.517 133.262 229.056 133.285 227.221C133.31 225.194 131.491 225.792 130.776 228.046ZM335.199 232.721C335.143 233.134 335.183 234.995 335.287 236.857C335.395 238.783 334.899 240.61 334.138 241.092C333.331 241.604 335.179 241.887 338.8 241.806C342.1 241.732 343.563 241.484 342.05 241.255C339.526 240.872 339.3 240.474 339.3 236.405C339.3 232.638 338.999 231.971 337.3 231.971C336.2 231.971 335.254 232.308 335.199 232.721ZM444.876 236.221C444.622 237.459 443.69 242.521 442.805 247.471C441.919 252.421 440.965 257.677 440.684 259.15C440.202 261.672 440.442 261.87 444.782 262.521C449.918 263.291 449.784 263.343 450.743 260.221C451.217 258.679 451.02 257.966 450.117 257.956C446.832 257.917 446.216 256.461 447.316 251.334L448.385 246.348L456.8 247.513L456.545 251.624C456.333 255.05 456.634 255.825 458.35 256.274C459.888 256.676 460.649 256.183 461.355 254.327C461.875 252.959 462.3 251.145 462.3 250.295C462.3 249.05 463.032 248.885 466.05 249.449C468.113 249.834 469.965 250.312 470.167 250.511C470.369 250.709 470.138 253.032 469.653 255.672C468.879 259.88 468.465 260.471 466.285 260.471C464.349 260.471 463.733 261.049 463.497 263.085C463.238 265.316 463.66 265.793 466.372 266.335C473.104 267.682 472.813 268.099 475.167 253.721C476.36 246.433 477.328 240.186 477.318 239.838C477.308 239.489 476.35 238.956 475.189 238.652C473.642 238.248 472.937 238.642 472.549 240.129C472.143 241.679 471.404 242.051 469.409 241.708C467.974 241.461 463.088 240.644 458.55 239.894C451.029 238.65 450.3 238.328 450.3 236.25C450.3 233.01 445.541 232.984 444.876 236.221ZM129.939 235.665C128.98 236.624 129.17 239.971 130.183 239.971C131.338 239.971 132.34 236.114 131.346 235.499C130.924 235.239 130.291 235.313 129.939 235.665ZM317.3 245.044C317.3 247.431 317.691 248.044 319.05 247.786C320.105 247.586 320.926 246.366 321.116 244.712C321.371 242.506 321.029 241.971 319.366 241.971C317.726 241.971 317.3 242.605 317.3 245.044ZM129.3 246.971C129.3 248.621 129.75 249.971 130.3 249.971C130.85 249.971 131.3 248.621 131.3 246.971C131.3 245.321 130.85 243.971 130.3 243.971C129.75 243.971 129.3 245.321 129.3 246.971ZM325.8 246.018L322.8 248.051L325.8 247.261C327.45 246.827 334.088 246.471 340.551 246.471C347.014 246.471 352.301 246.186 352.301 245.838C352.299 244.606 347.689 243.998 338.3 243.991C330.39 243.985 328.298 244.325 325.8 246.018ZM318.8 250.039C317.15 251.096 316.313 251.963 316.939 251.966C317.566 251.969 319.141 251.086 320.439 250.004C323.412 247.527 322.697 247.543 318.8 250.039ZM353.93 249.846C352.802 250.29 354.251 250.559 357.581 250.526C360.618 250.496 362.584 250.14 361.951 249.736C360.513 248.819 356.402 248.875 353.93 249.846ZM317.336 253.665C313.781 255.68 311.442 257.518 312.139 257.751C313.044 258.052 312.891 258.58 311.603 259.6C310.611 260.385 313.752 259.107 318.583 256.76C323.413 254.413 326.938 252.35 326.416 252.176C325.894 252.002 322.934 253.289 319.838 255.037C316.742 256.784 313.969 257.973 313.676 257.68C313.213 257.218 316.345 255.189 323.8 251.123C324.9 250.523 325.35 250.025 324.8 250.017C324.25 250.009 320.891 251.65 317.336 253.665ZM330.062 251.678C331.306 251.917 333.106 251.908 334.062 251.658C335.018 251.408 334 251.212 331.8 251.223C329.6 251.234 328.818 251.439 330.062 251.678ZM182.001 269.721C174.15 293.87 168.744 310.82 165.654 320.971C164.231 325.646 162.607 330.043 162.044 330.742C160.48 332.684 160.073 339.388 161.59 338.209C162.255 337.692 166.85 334.197 171.8 330.442C176.75 326.687 182.417 322.233 184.393 320.543C189.139 316.486 189.749 316.011 204.3 305.033C226.254 288.471 231.21 284.491 230.967 283.615C230.641 282.439 190.048 251.998 188.785 251.983C188.227 251.976 185.174 259.959 182.001 269.721ZM129.3 256.554C129.3 257.975 129.784 258.976 130.375 258.779C130.966 258.582 131.416 258.095 131.375 257.696C131.334 257.297 131.3 256.296 131.3 255.471C131.3 254.646 130.85 253.971 130.3 253.971C129.75 253.971 129.3 255.134 129.3 256.554ZM68.1314 257.501C65.4624 258.95 63.9854 262.155 62.7454 269.185C62.0114 273.353 60.0764 275.483 57.8134 274.614C55.8834 273.874 55.8514 269.125 57.7624 267.013C58.5664 266.124 58.9824 264.472 58.6864 263.34C58.1924 261.452 57.7864 261.366 53.7244 262.296C50.0464 263.137 49.3004 263.701 49.3004 265.639C49.3004 266.975 49.9004 267.971 50.7054 267.971C51.7634 267.971 51.9794 268.943 51.5824 271.905C51.1304 275.278 51.4494 276.205 53.8234 278.405C56.9914 281.34 61.6904 281.787 65.0014 279.468C67.1024 277.996 68.1054 275.679 70.2554 267.324C71.4204 262.795 73.3844 261.41 76.3724 263.01C78.9234 264.375 78.8374 268.393 76.2054 270.845C73.8904 273.002 74.3744 277.54 76.8194 276.602C77.5564 276.319 79.7654 275.787 81.7294 275.418C84.3514 274.926 85.3004 274.238 85.3004 272.828C85.3004 271.772 84.6284 270.65 83.8074 270.335C82.7964 269.948 82.5084 268.989 82.9164 267.367C85.0304 258.943 76.2564 253.088 68.1314 257.501ZM323.372 258.55C320.371 259.913 317.689 260.6 317.372 260.088C317.055 259.575 315.237 260.036 313.3 261.121C310.475 262.703 310.282 262.982 312.3 262.566L314.8 262.051L312.3 263.989C310.925 265.055 309.387 265.937 308.883 265.949C308.379 265.961 308.207 266.211 308.5 266.504C308.793 266.797 314.153 264.547 320.411 261.504C331.631 256.048 333.925 253.759 323.372 258.55ZM130.3 264.389C130.3 266.637 131.438 269.004 132.271 268.489C133.28 267.865 132.316 262.971 131.183 262.971C130.698 262.971 130.3 263.609 130.3 264.389ZM355.358 267.221C355.456 271.076 357.053 277.807 357.196 274.971C357.265 273.596 357.601 270.784 357.942 268.721C358.447 265.667 358.259 264.971 356.931 264.971C355.889 264.971 355.321 265.784 355.358 267.221ZM437.094 273.105C435.608 277.069 434.624 280.686 434.906 281.142C435.67 282.379 439.076 282.143 439.516 280.822C439.924 279.598 445.676 280.288 448.153 281.859C450.66 283.448 447.732 286.971 443.904 286.971C442.076 286.971 438.506 287.255 435.972 287.602C431.629 288.198 431.268 288.489 429.664 292.689C428.209 296.497 428.168 297.275 429.381 298.042C431.601 299.447 433.024 299.134 433.55 297.124C433.872 295.89 435.324 295.063 437.916 294.635C444.905 293.48 446.004 293.744 446.604 296.721C447.201 299.691 451.707 302.971 455.189 302.971C458.968 302.971 462.835 297.869 466.723 287.753C468.777 282.408 470.17 277.57 469.82 277.003C468.855 275.441 466.17 275.766 464.823 277.608C463.734 279.098 462.824 278.948 454.713 275.945C444.513 272.169 443.868 271.74 443.829 268.7C443.81 267.245 443.105 266.371 441.797 266.184C440.147 265.947 439.319 267.166 437.094 273.105ZM304.8 267.971C304.46 268.521 304.632 268.971 305.182 268.971C305.732 268.971 306.46 268.521 306.8 267.971C307.14 267.421 306.968 266.971 306.418 266.971C305.868 266.971 305.14 267.421 304.8 267.971ZM349.3 269.806C349.3 271.662 350.507 273.971 351.477 273.971C352.867 273.971 352.036 269.705 350.55 269.216C349.863 268.99 349.3 269.255 349.3 269.806ZM361.029 269.575C360.628 269.976 360.314 271.242 360.33 272.388C360.358 274.311 360.441 274.334 361.401 272.683C362.52 270.761 362.234 268.371 361.029 269.575ZM132.3 274.912C132.3 275.98 132.75 277.131 133.3 277.471C133.867 277.822 134.3 276.981 134.3 275.53C134.3 274.123 133.85 272.971 133.3 272.971C132.75 272.971 132.3 273.844 132.3 274.912ZM400.3 276.1C392.165 278.909 391.22 279.016 378.3 278.591L364.8 278.147L371.8 280.085C382.093 282.934 391.797 282.284 400.575 278.157C404.301 276.405 407.762 274.971 408.266 274.971C408.77 274.971 409.46 274.521 409.8 273.971C410.645 272.604 410.024 272.743 400.3 276.1ZM298.3 278.816C298.3 279.281 299.247 280.518 300.404 281.565C301.561 282.612 303.628 285.382 304.999 287.72C307.433 291.874 307.611 291.971 312.792 291.971C316.943 291.971 319.655 291.168 325.281 288.274C331.724 284.96 332.233 284.49 330.198 283.738C328.95 283.276 323.399 282.98 317.864 283.08C308.474 283.251 307.539 283.086 303.91 280.617C299.878 277.874 298.3 277.367 298.3 278.816ZM134.315 283.221C134.336 284.894 136.059 287.545 136.706 286.898C137.481 286.124 136.198 281.971 135.183 281.971C134.698 281.971 134.307 282.534 134.315 283.221ZM452.967 285.638C452.6 286.004 452.3 287.789 452.3 289.602C452.3 294.01 455.664 296.089 458.317 293.321C459.293 292.304 460.393 290.459 460.763 289.222C461.304 287.408 460.925 286.779 458.802 285.972C455.739 284.807 453.902 284.702 452.967 285.638ZM88.0814 290.034C86.8934 290.726 86.5114 291.874 86.8414 293.753C87.4084 296.972 82.4234 304.71 80.1944 304.072C73.5864 302.179 69.2224 303.887 67.4144 309.074C66.1654 312.656 66.6774 314.162 72.8954 325.194C78.5344 335.198 77.7294 334.287 80.2274 333.494C81.8004 332.995 82.1644 332.276 81.7264 330.532C81.0984 328.03 81.7374 327.526 94.0024 320.848C99.8694 317.653 100.275 317.568 101.528 319.275C102.894 321.136 106.3 320.732 106.3 318.71C106.3 318.134 104.688 314.781 102.719 311.259C100.226 306.801 98.6314 304.955 97.4694 305.181C96.4594 305.378 95.7924 306.477 95.7804 307.962C95.7544 311.17 89.7044 315.551 87.6524 313.848C85.5764 312.125 85.9734 310.753 90.3004 304.711C92.5004 301.638 94.3004 298.356 94.3004 297.416C94.3004 296.045 90.6144 288.885 89.9684 289.001C89.8764 289.018 89.0274 289.483 88.0814 290.034ZM137.857 293.221C138.7 295.965 139.122 296.482 139.891 295.713C140.753 294.851 139.341 290.971 138.165 290.971C137.59 290.971 137.459 291.927 137.857 293.221ZM141.521 300.893C141.674 302.225 142.363 303.5 143.05 303.726C144.751 304.286 144.623 302.763 142.771 300.412C141.29 298.532 141.25 298.548 141.521 300.893ZM424.803 301.962C424.455 303.057 424.452 304.407 424.794 304.962C425.137 305.517 424.71 305.971 423.844 305.971C421.879 305.971 418.309 311.674 418.304 314.821C418.298 318.19 424.38 323.971 427.93 323.971C429.487 323.971 433.364 322.364 436.545 320.401C442.627 316.647 445.548 316.305 446.121 319.281C446.622 321.88 444.466 323.971 441.285 323.971C438.844 323.971 437.3 325.465 437.3 327.825C437.3 328.205 438.863 329.358 440.774 330.387C443.667 331.945 444.512 332.04 445.82 330.954C446.684 330.237 447.15 329.022 446.855 328.254C446.561 327.487 447.441 325.871 448.811 324.665C450.181 323.458 451.579 321.027 451.918 319.261C452.433 316.577 452.036 315.553 449.494 313.011C445.523 309.04 442.622 309.134 434.837 313.487C431.258 315.489 427.866 316.742 426.963 316.395C425.034 315.655 424.028 312.845 424.888 310.603C425.609 308.722 429.608 307.425 431.355 308.505C432.55 309.244 434.257 307.387 434.285 305.32C434.3 304.186 428.016 299.971 426.31 299.971C425.829 299.971 425.15 300.867 424.803 301.962ZM145.27 309.915C146.494 312.201 148.3 313.511 148.3 312.112C148.3 309.987 147.013 307.971 145.658 307.971C144.553 307.971 144.465 308.411 145.27 309.915ZM74.3054 312.962C73.5034 314.461 73.6244 315.697 74.7954 317.962C76.6164 321.484 76.6224 321.485 80.3964 319.255C83.7574 317.27 83.8684 316.768 81.6854 313.436C79.7134 310.426 75.7974 310.174 74.3054 312.962ZM149.332 316.638C149.349 317.096 150.02 318.338 150.821 319.398C152.539 321.668 154.206 320.631 152.693 318.233C151.543 316.409 149.282 315.336 149.332 316.638ZM155.532 325.971C157.014 328.344 158.776 328.655 157.907 326.389C157.573 325.519 157.3 324.619 157.3 324.389C157.3 324.159 156.621 323.971 155.792 323.971C154.533 323.971 154.49 324.303 155.532 325.971ZM167.806 340.977C169.795 343.176 170.886 342.941 169.955 340.514C169.629 339.665 168.604 338.971 167.676 338.971C166.137 338.971 166.149 339.146 167.806 340.977ZM0.143374 392.471C0.423374 395.988 0.891365 396.971 2.28437 396.971C4.09637 396.971 5.26136 394.351 5.28636 390.221C5.29736 388.428 4.73937 387.971 2.54337 387.971C-0.110632 387.971 -0.200626 388.139 0.143374 392.471ZM8.31438 390.221C8.35538 397.066 12.4744 399.851 13.6754 393.846C14.7334 388.556 14.4974 387.971 11.3004 387.971C8.85237 387.971 8.30338 388.385 8.31438 390.221ZM17.3004 388.644C17.3004 389.014 18.7394 395.336 20.4994 402.693L23.6984 416.068L26.6694 415.77C29.5304 415.482 29.7324 415.12 32.1334 405.971C33.5044 400.746 34.7784 396.284 34.9634 396.054C35.6744 395.175 36.4924 396.985 37.9324 402.624C41.5714 416.873 41.1454 415.971 44.2274 415.971C47.3514 415.971 46.8794 417.177 52.1524 395.721L54.0574 387.971H51.1794C49.5954 387.971 48.3004 388.264 48.3004 388.621C48.3004 390.727 44.9534 405.608 44.3284 406.283C43.9144 406.73 42.5814 402.793 41.3664 397.533L39.1564 387.971H35.8084C32.6964 387.971 32.3534 388.305 30.9294 392.721C30.0874 395.334 29.1004 399.163 28.7364 401.232C27.6884 407.181 26.6414 406.509 24.8144 398.714C23.8804 394.731 22.9024 390.683 22.6414 389.721C22.1934 388.074 17.3004 387.088 17.3004 388.644ZM57.3004 415.971H59.6834C62.4854 415.971 63.2664 413.883 63.2864 406.343C63.3014 400.671 64.7864 398.618 68.4954 399.144C70.6614 399.451 70.8184 399.968 71.0904 407.721C71.3734 415.739 71.4504 415.971 73.8404 415.971C76.2574 415.971 76.2994 415.827 76.2684 407.721C76.2484 402.608 75.7504 398.831 74.9564 397.787C72.9564 395.155 68.6694 394.499 65.7934 396.384C63.0324 398.193 63.0454 398.215 63.2834 392.221C63.4464 388.106 63.3544 387.971 60.3764 387.971H57.3004V415.971ZM154.3 415.971H165.3C175.633 415.971 176.3 415.85 176.3 413.971C176.3 412.138 175.633 411.971 168.3 411.971H160.3V402.971H167.3C173.633 402.971 174.3 402.781 174.3 400.971C174.3 399.161 173.633 398.971 167.3 398.971H160.3V391.971H167.8C174.633 391.971 175.3 391.793 175.3 389.971C175.3 388.098 174.633 387.971 164.8 387.971H154.3V415.971ZM276.3 415.971H281.3L281.379 405.221C281.465 393.565 281.662 393.691 285.365 407.775C287.437 415.656 287.68 416.064 290.136 415.775C292.524 415.494 292.913 414.716 295.178 405.681C298.069 394.151 299.263 394.598 299.285 407.221C299.299 415.299 299.454 415.971 301.3 415.971C303.205 415.971 303.3 415.304 303.3 401.971V387.971H299.378C295.071 387.971 295.177 387.8 292.256 399.471C290.057 408.259 289.365 407.556 286.175 393.301L284.982 387.971H276.3V415.971ZM310.3 389.971C310.3 391.438 310.967 391.971 312.8 391.971C314.633 391.971 315.3 391.438 315.3 389.971C315.3 388.504 314.633 387.971 312.8 387.971C310.967 387.971 310.3 388.504 310.3 389.971ZM321.3 415.971H326.3V387.971H321.3V415.971ZM366.3 415.971H371.3L371.33 405.221C371.362 393.94 372.193 393.293 374.22 402.971C376.806 415.317 377.173 416.121 380.067 415.782C382.54 415.492 382.891 414.801 385.16 405.754C387.479 396.506 389.676 393.567 389.221 400.321C389.105 402.054 389.075 406.284 389.155 409.721C389.283 415.256 389.529 415.971 391.3 415.971C393.205 415.971 393.3 415.304 393.3 401.971V387.971H389.339C384.979 387.971 385.463 387.137 382.23 400.238C380.214 408.409 379.329 407.395 376.175 393.301L374.982 387.971H366.3V415.971ZM509.67 390.221C510.001 391.459 510.279 393.515 510.286 394.791C510.297 396.621 510.774 397.043 512.55 396.791C514.42 396.525 514.852 395.754 515.107 392.221C515.409 388.049 515.357 387.971 512.241 387.971C509.437 387.971 509.137 388.234 509.67 390.221ZM518.675 391.096C519.019 392.815 519.3 394.871 519.3 395.666C519.3 396.592 520.108 396.995 521.55 396.791C523.42 396.525 523.852 395.754 524.107 392.221C524.41 388.047 524.358 387.971 521.232 387.971C518.201 387.971 518.08 388.12 518.675 391.096ZM424.5 390.171C423.84 390.831 423.3 392.195 423.3 393.202C423.3 394.21 422.625 395.293 421.8 395.609C420.975 395.926 420.3 396.764 420.3 397.471C420.3 398.178 420.975 399.016 421.8 399.333C422.947 399.773 423.3 401.656 423.3 407.333C423.3 415.393 423.707 415.971 429.382 415.971C432.799 415.971 433.509 413.1 430.3 412.261C428.563 411.807 428.3 410.897 428.3 405.354C428.3 400.347 428.623 398.971 429.8 398.971C430.625 398.971 431.3 398.296 431.3 397.471C431.3 396.646 430.625 395.971 429.8 395.971C428.752 395.971 428.3 394.915 428.3 392.471C428.3 388.839 426.762 387.909 424.5 390.171ZM438.05 390.051C437.088 390.612 436.3 391.8 436.3 392.692C436.3 393.584 435.549 395.144 434.631 396.158C433.087 397.864 433.084 398.096 434.597 399.237C435.78 400.129 436.312 402.404 436.517 407.446C436.767 413.611 437.071 414.555 439.134 415.58C440.418 416.218 442.331 416.514 443.384 416.239C445.99 415.557 445.919 411.971 443.3 411.971C441.519 411.971 441.3 411.304 441.3 405.877C441.3 400.625 441.576 399.712 443.3 399.261C444.4 398.973 445.3 398.168 445.3 397.471C445.3 396.774 444.4 395.969 443.3 395.681C441.844 395.3 441.3 394.317 441.3 392.065C441.3 388.756 440.802 388.448 438.05 390.051ZM84.3774 397.56C81.6334 399.868 81.3004 400.74 81.3004 405.605C81.3004 410.065 81.7484 411.51 83.7554 413.516C87.0604 416.822 94.2784 416.985 97.2264 413.82C100.417 410.395 96.9894 408.139 93.6574 411.471C91.7314 413.397 89.8464 413.374 87.8714 411.4C84.6754 408.203 85.9324 407.079 93.0504 406.767C99.1524 406.499 99.7724 406.279 99.5054 404.471C98.1864 395.524 90.8044 392.152 84.3774 397.56ZM111.05 396.649C109.972 397.727 109.3 397.933 109.3 397.185C109.3 396.517 108.159 395.971 106.764 395.971H104.228L104.514 405.721C104.78 414.798 104.947 415.492 106.927 415.774C108.886 416.054 109.111 415.477 109.762 408.531C110.482 400.849 111.248 399.471 114.8 399.471C116.133 399.471 116.8 398.804 116.8 397.471C116.8 394.848 113.344 394.354 111.05 396.649ZM124.602 395.983C118.085 398.607 117.591 411.648 123.881 415.014C128.572 417.525 137.3 415.205 137.3 411.448C137.3 409.484 132.693 409.504 131.938 411.471C130.727 414.628 124.3 412.043 124.3 408.4C124.3 407.298 125.9 406.971 131.3 406.971C139.102 406.971 139.422 406.593 136.848 400.433C134.85 395.65 129.897 393.851 124.602 395.983ZM207.3 396.214C201.953 399.021 201.17 410.15 206.049 413.989C209.769 416.915 216.293 416.672 219.275 413.497C221.421 411.213 221.462 410.971 219.814 410.338C218.832 409.961 217.302 410.177 216.414 410.818C212.207 413.856 209.086 413.188 208.48 409.119C208.181 407.107 208.578 406.971 214.73 406.971H221.3V404.027C221.3 397.713 213.13 393.154 207.3 396.214ZM233.014 396.685C231.944 397.755 231.3 397.943 231.3 397.185C231.3 396.517 230.175 395.971 228.8 395.971H226.3V415.971H228.8C231.175 415.971 231.301 415.684 231.315 410.221C231.333 403.282 233.074 399.381 236.016 399.692C238.439 399.948 239.997 397.03 238.084 395.816C236.143 394.585 234.902 394.798 233.014 396.685ZM334.223 397.894C331.753 400.364 331.3 401.611 331.3 405.94C331.3 412.784 334.244 415.971 340.566 415.971C345.019 415.971 349.993 412.901 348.763 410.911C347.891 409.5 345.35 409.778 343.657 411.471C341.731 413.397 339.846 413.374 337.871 411.4C334.629 408.157 335.904 406.971 342.633 406.971C346.117 406.971 349.226 406.712 349.542 406.396C350.683 405.255 348.28 399.422 345.762 397.221C342.131 394.046 337.819 394.298 334.223 397.894ZM401.935 397.044C400.486 398.183 399.3 399.533 399.3 400.044C399.3 401.293 404.021 401.231 404.8 399.971C405.77 398.402 410.298 398.802 410.955 400.514C411.746 402.576 411.336 402.869 405.702 404.27C399.37 405.843 397.018 409.365 399.633 413.356C400.98 415.412 402.153 415.971 405.123 415.971C407.2 415.971 409.459 415.412 410.142 414.729C411.105 413.766 411.55 413.758 412.127 414.692C412.537 415.354 413.755 415.666 414.836 415.385C416.626 414.919 416.771 414.127 416.477 406.428C416.197 399.126 415.862 397.778 414.004 396.476C410.911 394.31 405.061 394.585 401.935 397.044ZM451.223 397.894C448.777 400.34 448.3 401.628 448.3 405.783C448.3 409.037 448.903 411.482 450.05 412.874C452.095 415.356 456.851 416.869 460.028 416.047C463.013 415.275 466.532 412.155 465.784 410.944C464.893 409.503 462.365 409.763 460.657 411.471C458.731 413.397 456.846 413.374 454.871 411.4C451.53 408.058 452.883 406.971 460.379 406.971H467.459L466.807 403.721C466.449 401.933 464.831 399.233 463.212 397.721C459.237 394.007 455.049 394.068 451.223 397.894ZM478.325 396.662C477.516 397.945 477.031 398.107 476.659 397.221C476.37 396.534 475.271 395.971 474.217 395.971C472.456 395.971 472.3 396.783 472.3 405.971V415.971H474.8C477.243 415.971 477.3 415.8 477.3 408.53C477.3 400.807 477.964 399.471 481.8 399.471C483.133 399.471 483.8 398.804 483.8 397.471C483.8 394.81 479.859 394.228 478.325 396.662ZM490.615 395.925C489.414 396.438 487.905 397.84 487.263 399.039C486.303 400.834 486.435 401.675 488.009 403.783C489.061 405.192 491.244 406.74 492.861 407.222C499.505 409.206 500.584 409.924 499.279 411.496C497.698 413.401 493.86 413.388 491.943 411.471C490.343 409.871 486.3 409.403 486.3 410.818C486.3 411.284 487.178 412.678 488.252 413.915C489.745 415.637 491.382 416.201 495.227 416.318C499.474 416.447 500.672 416.05 502.977 413.746C505.322 411.403 505.568 410.633 504.732 408.246C503.997 406.149 502.666 405.134 499.28 404.09C493.494 402.307 491.998 401.566 491.566 400.269C490.939 398.389 496.367 397.722 498.271 399.445C499.424 400.489 500.7 400.756 502.076 400.243C503.898 399.563 503.982 399.248 502.777 397.604C501.204 395.458 494.027 394.466 490.615 395.925ZM181.387 401.153C182.549 404.078 184.298 408.496 185.275 410.971C186.621 414.38 187.642 415.543 189.488 415.769C191.703 416.04 192.259 415.221 195.612 406.75C197.64 401.625 199.3 397.103 199.3 396.702C199.3 396.3 198.258 395.971 196.985 395.971C195.036 395.971 194.304 397.006 192.36 402.513C191.09 406.111 189.78 408.785 189.45 408.454C189.119 408.123 187.896 405.292 186.732 402.162C184.958 397.395 184.181 396.419 181.945 396.153L179.276 395.836L181.387 401.153ZM240.3 396.371C240.3 396.59 241.9 400.913 243.856 405.977C247.985 416.67 248.023 419.33 244.05 419.787C242.107 420.011 241.3 420.671 241.3 422.037C241.3 425.04 248.736 424.789 250.678 421.721C251.933 419.74 260.3 397.786 260.3 396.476C260.3 396.198 259.212 395.971 257.882 395.971C255.793 395.971 255.168 396.859 253.3 402.471C252.11 406.046 250.724 408.971 250.218 408.971C249.713 408.971 249.3 408.538 249.3 408.009C249.3 407.479 248.368 404.554 247.228 401.509C245.497 396.881 244.757 395.971 242.728 395.971C241.393 395.971 240.3 396.151 240.3 396.371ZM310.3 415.971H315.3V395.971H310.3V415.971ZM87.5434 400.128C85.0374 402.634 86.1584 403.971 90.7684 403.971C94.9794 403.971 95.1884 403.842 94.4104 401.721C93.4694 399.156 89.4484 398.223 87.5434 400.128ZM125.335 400.905C123.774 403.822 123.943 403.971 128.8 403.971C131.826 403.971 133.3 403.545 133.3 402.671C133.3 398.973 127.104 397.599 125.335 400.905ZM209.5 400.171C207.127 402.544 208.178 403.971 212.3 403.971C215.558 403.971 216.3 403.62 216.3 402.078C216.3 399.167 211.774 397.897 209.5 400.171ZM337.5 400.171C335.03 402.641 336.185 403.971 340.8 403.971C345.657 403.971 345.826 403.822 344.265 400.905C343.108 398.743 339.337 398.334 337.5 400.171ZM454.5 400.171C452.03 402.641 453.185 403.971 457.8 403.971C462.657 403.971 462.826 403.822 461.265 400.905C460.108 398.743 456.337 398.334 454.5 400.171ZM407.623 406.674C404.354 407.3 402.755 409.609 404.3 411.471C406.752 414.426 410.68 412.836 411.455 408.575C411.834 406.493 410.926 406.042 407.623 406.674Z" fill="white"/>
<path d="M214.3 175.971L242.747 82.9708L273.3 175.971H214.3Z" fill="#DD2C1C"/>
</svg>
